<svg xmlns="http://www.w3.org/2000/svg" width="400" height="300"><path d="M7.188 64.531c-3.985 0-7.188 3.2-7.188 7.188v156.563c0 3.988 3.201 7.188 7.188 7.188h83.438c3.985 0 7.188-3.198 7.188-7.188v-156.563c0-3.988-3.203-7.188-7.188-7.188h-83.438zm-2.719 17.25h88.875v134.063h-88.875v-134.063zm44.438 139.5c2.426 0 4.406 1.947 4.406 4.375s-1.98 4.406-4.406 4.406c-2.426 0-4.375-1.978-4.375-4.406s1.948-4.375 4.375-4.375zm300.968-113.062v.031c-12.513 0-23.274 6.945-29 17.125-1.428-.253-2.897-.438-4.406-.438-10.947 0-20.154 7.056-23.563 16.844-.497-.033-.986-.125-1.5-.125-13.834 0-25.063 11.197-25.063 25.031s11.228 25.063 25.063 25.063h83.531c13.834 0 25.063-11.228 25.063-25.063 0-10.947-7.056-20.153-16.844-23.563.016-.506.125-.964.125-1.469 0-18.451-14.955-33.438-33.406-33.438zm0 8.375c13.72 0 24.899 11.079 25.063 24.75-.065.506-.109 1.008-.125 1.531l-.219 6.125 5.813 2.031c6.722 2.341 11.25 8.656 11.25 15.688 0 9.217-7.502 16.688-16.719 16.688h-83.531c-9.209 0-16.688-7.47-16.688-16.688 0-9.12 7.351-16.573 16.438-16.719.392.057.811.101 1.219.125l6.344.406 2.063-5.969c2.349-6.737 8.656-11.281 15.688-11.281.816 0 1.731.101 2.938.313l5.844 1.063 2.906-5.188c4.47-7.945 12.779-12.875 21.719-12.875zm-119.594-35.844v13.563h-89.406v9.031h89.406v13.594l31.281-18.094-31.281-18.094zm-60.375 104.781l-31.281 18.094 31.281 18.094v-13.563h89.406v-9.063h-89.406v-13.563zm11.477-185.534h2.897v2.862h2.65v-2.862h2.897v8.667h-2.897v-2.902h-2.65v2.902h-2.897v-8.667zm12.253 2.874h-2.551v-2.874h7.998v2.874h-2.551v5.793h-2.897v-5.793zm6.718-2.874h3.021l1.858 3.045 1.856-3.045h3.022v8.667h-2.885v-4.296l-1.993 3.081h-.05l-1.994-3.081v4.296h-2.834v-8.667zm11.198 0h2.898v5.802h4.074v2.864h-6.972v-8.667zm-34.333 12.472l4.125 46.469 18.594 5.156 18.625-5.156 4.156-46.469h-45.5zm8.469 9.5h28.563l-.531 5.688h-21.813l.531 5.844h20.781l-1.563 17.5-11.688 3.25-11.688-3.25-.813-9.156h5.719l.406 4.75 6.375 1.719 6.344-1.719.656-7.375h-19.75l-1.531-17.25zm40.092 240.573c0-2.076-1.683-3.759-3.76-3.759-2.076 0-3.759 1.684-3.759 3.761l.002 15.745c0 2.079 1.682 3.758 3.76 3.759 2.076 0 3.758-1.681 3.759-3.761l-.003-15.745zm-42.583-3.044l.005 24.4c-.001 2.219 1.793 4.011 4.012 4.011h2.732l.003 8.331c-.001 2.074 1.686 3.76 3.757 3.76 2.078 0 3.761-1.688 3.761-3.763l-.002-8.329h5.076l.002 8.33c-.001 2.073 1.687 3.762 3.758 3.758 2.077 0 3.761-1.686 3.761-3.762l-.002-8.328h2.741c2.213 0 4.013-1.793 4.013-4.013l-.003-24.4-33.614.01zm6.272-20.404l-.188.063c-.255.137-.361.438-.219.688l2.625 4.813c-5.158 2.66-8.628 7.715-8.625 13.531h33.875c.001-5.815-3.474-10.865-8.625-13.531l2.625-4.813c.14-.25.035-.546-.219-.688-.256-.136-.584-.065-.719.188l-2.656 4.844c-2.231-.992-4.703-1.534-7.344-1.531-2.634 0-5.123.544-7.344 1.531l-2.656-4.844c-.103-.191-.33-.271-.531-.25zm2.813 10.125c.785-.001 1.436.626 1.438 1.406 0 .782-.65 1.438-1.438 1.438-.78 0-1.406-.655-1.406-1.438 0-.78.623-1.407 1.406-1.406zm15.438 0c.779 0 1.406.626 1.406 1.406.001.784-.624 1.438-1.406 1.438-.783.001-1.438-.651-1.438-1.438.002-.778.653-1.403 1.438-1.406zm-29.741 9.57c-2.076 0-3.759 1.685-3.759 3.76l.003 15.745c.001 2.082 1.684 3.761 3.76 3.761 2.078 0 3.761-1.68 3.758-3.761v-15.747c-.001-2.074-1.686-3.759-3.762-3.757" fill="#ffffff"/></svg>