<svg xmlns="http://www.w3.org/2000/svg" height="300" width="300"><path d="M114.281 0c-.031 1.193 1.745.906 2.031 0h-2.031zm3.594 0c.404.406.868.77 1.063 1.125-.027.208-.033.441-.031.688l-.063.031c-1.146.843-.404 2.234.406 2.625.167.631.327.981.375.531l.094-.406c.255-.023.501-.193.625-.563.356-.342.5-.824.625-1.313.357.487.799.403 1-1.125.415-.313.415-1.015.219-1.594h-4.313zm40.156 0c.112.441.247.958.375 1.563-.459 1.489.187 2.749.75 4.219l.344-.156c-.025.565.127 1.219.531 1.656l-.094.219-.125.031c-1.895.064-.485 2.434-1.125 3.563.072.259.177.519.281.75.002.672.106 1.784-.031 2.094-.335 1.458-.758 2.946.031 4.406.654-.132 1.14-.416 1.469-.781.209.289.458.441.688.469-.157.093-.442.112-.844-.031.493 1.383.978 3.035-.344 4.125.895 1.585 1.171 4.091 3.313 4.375.261 1.534 2.21 1.794 3.094 2.719 1.807-.065-.539 3.404 1.563 2.563 1.971.526 1.316 1.676 3.875.719 1.366-.597 3.162 1.313 3.844-.438 1.481-.45 3.586-.054 4.156-1.844 2.442-.844 3.103-3.435 5-4.813 1.328-1.118 2.26-2.252 3.625-3.469-.504-1.162 1.03.16 2.094-.594 1.987-2.616 2.215 4.151 2.531 2.219-.023-1.925.063-3.828.406-5.719 1.012-.186 1.021-.656 1.406-.156-1.68-.232 1.084 1.992 1.844 3.125l.031-.219c.21.238.459.356.719.281.159 1.096.156 2.434.563 3.719.284 1.114-.206 2.221-.219 3.063.397 3.046 1.654.809-.188 4.219.413-.516.962-.926 1.531-1.25-.032.32.083.642.438 1 .055.119.147.318.219.531.032.154.08.338.156.531.034.174.066.308.125.438l.344 1.156-.125.094.156.063c.483 1.665.94 3.034.781.938l-.031-.281c.54.937.198 2.286 1.5 2.563.026 1.31-.324 3.023 1.531 3.281-.482.983 1.093 2.092 1.188 3.313.691.905.788 1.98 2 2.5.693.966 1.055 2.885 2.531 2.813.543.868-3.308.911-1.406 2.875-.949-.159-4.425-1.426-1.125 1.469l.375.719c-.601-.203-1.234-.263-1.875-.094-1.693 1.05-2.565 2.601-4.531 2.156-2.187-.373-5.154-2.694-2.531.688 1.168.727.941 2.158-.531 1.969-.84.147-1.699.19-2.563.188.56-1.082.838-2.028-.531-2.375-.281-.208-.564-.456-.813-.688.405.112.826.037 1.125-.656 1.48.607.867-2.239 2.125-2.844.833-1.444.071-2.946-1.563-3.375-2.476 1.175-2.359-.903-2.75-2.594-.468-1.593.73-2.824 1.063-4.313 1.055-1.045.525-3.082.25-4.375-2.026-2.02 3.958-2.423 1.156-3.156-.47-.116-.939-.659-1.438-.469-1.547.433-2.304 2.426-4.188 1.969-2.188 1.186-2.125 5.055-4.844 5.5-1.875-.273-3.498.169-5.094.719-1.495 1.732-2.581 3.682-3.125 5.844-.75 1.16.023 5.473-.875 2.313-.707-2.137.259 3.398.219 4.594.426 2.48.671 4.981-.281 7.375.466.144 1.213.476 1.906.875-.112 1.083 1.115 1.875 1.875 1.844-.008.066-.024.159-.063.219-.918.345-1.244 1.036-1.188 1.75-.053.09-.093.181-.156.219-1.221 1.47-1.339 3.203-1.094 4.938-.16.419-.054.847.219 1.188l.594 2.594c.205-.573.255-1.338.313-2.094.341.038.714-.023 1.094-.313-.068-.107-.09-.238-.125-.375.197.013.399.012.625-.031.349-.069.594-.238.75-.438l.219.313c-.123.08-.281.15-.438.281-1.385.127-1.357 1.493-.781 2.094-.45.198-.706.586-.375 1.406-.111 1.377 3.26 2.266 1.156 3.031 1.724 2.95 1.177 1.444-1.094 2-1.099.897-.385 3.483-2.188 2.969-.092.057-.195.047-.281.031.654-.398 1.08-1.015.906-2.156.359-.759-1.334.753-1.5.719-.117.1-.309.227-.531.375-.136-.128-.273-.219-.438-.313.556-.468 1.096-.999 1.656-1.313l-3.063.5-1.469.188c-.566-.202-1.135-.196-1.438.25l-.156.063c-.25-.087-.597-.097-1.063 0h-.188c-.527.096-.959.242-1.313.406h-.094c-.236.028-.609.094-1.031.188.368-1.694.625-3.083-.844-.375l-.469.688c-.803.203-1.606.427-2.281.625-.514-.259-.877-.292-.813.25-.479.157-.699.256-.375.219h.438l.063.344h-.219c-.574-.314-1.252.154-1.813.781-.29-.135-.668-.265-1.063-.344.265-.205.532-.401.781-.625.317-.33-1.59.215-2.75.5l-.188.063c-.229.054-.417.083-.531.094-1.481.146-2.838.44-3.531 1.5-.246-.027-.488-.025-.719.031-.857.375-2.635 1.891-2.594 2.469-.533.661-.806 1.48-.5 2.188l-.063.125c-1.24 3.524-1.39 7.739-4.625 10.281-1.847.168-1.465 1.396-2.188 2.438-.437.202-.792.573-1 .969l-.375.031c-1.212.415-1.268.963-.875 1.5-.27 0-.508.044-.719.156-1.473.146-1.67 1.318-1.188 2.25-.268.023-.496.093-.688.219-1.049.083-2.626.917-3.375 1.281-.973.677-2.619.978-3.469 1.75l-.188.063c-2.395.397-5.145.143-7.188 1.656-1.198.609-.988 2.365-1.281 3.625-.135 1.736-.424 3.568-1.156 5.031-1.543 3.239-5.588 2.175-8.344 3.375-1.786.577-3.468 1.266-3.969 3.25-.207 1.135.511 2.383-1.594 2.344-1.349-.315-2.696-1.358-4.25-1.375-1.451-.862-3.623-.109-3.813-2.281 2.058-1.51-.966-3.915-2.563-2.469-1.292-.09-3.008-2.276-3.844-.594-.026 1.438.47 2.389.344 4.219.13 1.002 1.517 1.956 1.313 3.25-.28 1.732-.385 3.538-.469 5.313-1.339.966.121-2.192-2.969-.969-1.267 1.11-1.483-.922-3.375-.125-.764-.442-2.785 2.14-2.656-.063-1.233-1.855-.361-2.389-1.531-3.469-1.189-.752-2.385.472-4.125-.219-1.149-.518-1.519 2.073-2.969 1-.636-.869-2.343-.053-3.438-.281-1.463.418-4.241-.502-4.188.75-1.806.13-2.447 3.435-1.219 4.188.256.893 1.754 1.824-.875 2.406-1.585 1.569 2.665 1.225 2.469 2.875-1.464 1.796 1.454 2.487 2.688 1.688-2.08-1.253-.183-.711 1.156-.031-.029.93 1.268 1.055 2.281 1.5 1.113 1.393 2.546 1.044 3.344 2.5-.404.806-.254 1.309.125 1.688-.618-.236-1.285-.347-1.75-.281l.156.938c-.373 1.521 2.4 2.841 2.906 1.219.361-.358.275-.756-.031-1.094.536.27 1.086.554 1.438 1 1.359 1.161 2.694 2.061 4.156 2.531-.375.531-.288.882-.031 1.156l-.094.031c-1.585.609-.763 1.633.156 2.594-.334 1.44 1.567 2.667 1.906 4.031.461 1.464.636 6.809 1.375 2.875.528-.533.997.139 1.531.781l-.188.156c-1.81.394-.976 1.447.125 2.156-.481-.099-.711.073-.313.781l.125.375.063.25c.052 1.083.616 1.991 1.125 2.938-.251.318-.378.693-.25 1.219 1.392 1.208.861 1.766.156 3.813-.179.583-.337 1.162-.5 1.75 2.047-2.943 5.456-4.875 9.313-4.875 6.26 0 11.344 5.084 11.344 11.344s-5.084 11.344-11.344 11.344c-5.793 0-10.569-4.36-11.25-9.969-.984 4.193-2.046 8.363-3.875 12.281-.374.585-1.189.785-1.906 1l-.219-.406c-2.031.991-4.678 1.269-6.313-.594-1.356-.416-2.09-1.686-3.563-1.406-1.125.196-2.255 1.152-3.188-.094-.622-.601-2.643-2.489-4.5-1.938-1.913-.417-3.582.753-5.563.188-2.567-.441-4.599-1.895-7-2.625-1.079-1.346-2.559-1.034-4.063-1.844-.572-1.933-2.426-.911-3.656-.75-1.349-.971-2.92-.079-4.375-.906-1.903-.711-4.299-.382-6.031-1.594-.124-1.783-2.655-1.746-2.688-2.906.71-1.879-.37-.391-1.313-.125-1.25-.459-2.427-.433-3.813.469-1.83 1.031-2.722-.101-3.031 2.188-.219.496-2.115 1.136-3.281.563-1.539-1.767-2.95 1.433-4.469.438-1.434 1.126-1.763 2.196-2.469 3.594.741 2.059 1.33 1.086 1.563 3.156-.955 1.028.319 2.462-.25 3.281 1.806.83 1.088 3.015.031 3.938-.057.727-.527 2.268-.594 3.313-.793.996-.414 2.546-.313 3.75-.56 2.38.134 4.752-.188 7.125-1.28 2.846-2.665 5.552-4.156 8.281-.43 1.825-1.415 3.819-2.844 5.469-1.106 1.838-2.523 3.693-4.969 3.5 1.782 1.85-1.002 3.105-.938 4.938-.745 1.16-2.043 3.159-.875 4.188 2.543.162 1.636 2.994.719 4.375 1.4-.245 4.572-1.458 4.094 1.031.474 1.828-1.84 3.267-1.719 4.594 1.324 1.589-.713 3.727-.531 5.563-1.181 1.504-1.689 3.112-3 4.5.087 2.011 2.001 1.245 3.313 1.125 1.537-.327 2.724.567 4.25 1.094 2.04.097 3.199 2.765 5.313 1.813 1.13-.5 2.285-.999 3.5-1.156.128.127.269.25.469.313 3.416-.725 6.071 2.338 7.844 4.75-.173 1.433-1.164-.29-.125 2.781 1.295 2.352 1.134 5.423 3.125 7.25 1.329.308 1.735 2.04 3.219 2.406.602.205 1.206.288 1.781.281-.067.08-.103.203-.063.406-.976.722-2.052.038-3.156.563-2.25-1.163-2.585 1.774-3.594 3.031-1.911 2.984-3.523 6.2-5.594 9.094h38l-.25-.594c-.232-1.291-.027-2.992-.906-2.188-1.117 1.374-2.031 2.318-3.906 2.469-1.897.224-3.082-2.826-4.813-1.25-.31-.682-2.038-.75-3.5-.25-1.741.232-3.138.03-4.688-.875-2.383-1.17-3.728-3.527-5.125-5.625-.402-.853-.262-1.687-.281-2.5.796-.393 1.676-1.209 2.281-1.719-.567.412-1.468.201-2.313-.094.14-.38.268-.966.406-1.75l.125-.156c.074-.085.08-.17.094-.25.737-1.347 1.946-2.56 3.625-2.438 1.473-.381 3.427 1.225 4.594-.5 1.494-1.554 3.06-.815 4.969-.969 2.041.313 4.046.564 5.938 1.531 1.71-.12 3.339-.329 5.063.344 1.127 1.079 3.558 1.69 4.406-.25 2.083-.589 2.484 2.318 4.438 1.531 1.128-.738 2.026-2.025 2.938-2.469.42-1.508 1.145-3.117 2.531-4.063.987-.784 2.248-1.004 3.219-1.844 1.309-.186 2.905-.126 4.125.563.418-.325 1.282-.322 2-.375.457 1.105 1.029 2.19 1.344 3.313-.053-1.284-.112-2.536-.219-3.813.01-.079-.002-.176-.031-.281-.071-.8-.143-1.611-.25-2.406.28-.407.617-.867.813-1.469.629-1.354.691-2.721 2.188-2.938-.148-1.513 1.484-2.117 2.656-2.688 1.585-.356 2.801-.87 3.875-1.75 1.617-.306 1.965-1.464.969-2.844-1.246-.919-2.85-1.468-3.125-3.25.027-2.054-1.606-4.794.625-6.406 1.15-2.153 3.067-3.712 4.719-5.406 1.552-1.314 2.935-2.962 4-4.594 1.22.46 2.946-1.213 3.969-2.156-2.118-1.172-.399-2.524 1.156-3.219 2.083.067 4.023-1.161 6.25-1.063 2.205-.238 4.797-.225 5.969-2.469 3.198-1.606 7.069-2.482 9.656-5 .921-1.064.386-2.46-.156-3.563.296.167 3.852-2.71.844-2.719.017-.445-.106-.722-.313-.938-.082-.562-.387-1.201-.844-1.594.339-1.172-.299-2.882.281-3.563.364-.548.404-2.38 1.656-3.281 1.716-.672 2.957-1.138 4.563-2.281 1.593-1.816 2.418-1.356 3.656-.031 2.172-.365 2.606.847 3.938 1.656 2.337.471 2.212-1.158 3.969.5 2.357-.731 1.289 1.43 2.906 1.719 1.604-.018 2.623.902 3.188 1.781 1.364-.057 1.642.061 1.656.25-.362.163-.431.292-.063.469.015.094.033.182.156.281l.406-.063c.312.081.732.161 1.25.25.748.793 1.999-.494 2.563-1.469l.219.031c.656-1.044 2.404-.016 3.25-1.5-.476-1.837 1.108-1.855 2.094-2.75.556-1.232 2.334-.956 2.594-2.25.395-.081.992-.262 1.563-.531l.781-.125-.094-.281.219-.156c2.298.078 4.855-.759 6.594-2.438-.2-1.947 2.084-1.981 2.5-3.531.856-1.281 2.63-2.059 4.063-1.188 1.154.345 2.283 1.505 3.188 1.375 2.096 1.174 3.964 2.755 6.188 3.938-.831-2.367 2.078.703 1.594 2-.008 1.918.434 3.658 1.813 4.969.703 1.183 1.171 2.974.031 4.031-.115.546-.034.883.156 1.094-.992.88-3.036-.104-3.438 1.344-.176.504-.101.878.125 1.125-.097.233-.189.519-.344.938-2.337 2.23 2.854 2.085 1.438 0l-.25-.531c.599.13 1.323.096 1.75 0 1.771 1.953 1.908-.824 1.813-2.25v-.281c.94.021 1.861-.188.875 1.125.878.798 3.717 1.293 4.156 3.313.503.046-1.755 1.61.438 2.438 1.193.195 2.186-.848 3.438.219 2.118.738 1.888 4.123 4.375 4.125 1.443.62 1.88 2.032 2.594 3.25 2.542.65 3.289 4.085 6.156 3.844 1.214.486 1.795 3.786 3.125 1.813 1.55-1.417 2.912.869 4.563.406.59-1.654 1.981 1.4 2.313 1.969.674.459.816 1.297.969 1.969-.082-.01-.138-.005-.219.031-2.877-.58-1.444 2.999.5 1.906.681-.034.813-.507.688-.969.212-.052.481-.172.813-.375.941-.234 3.275.292.938 1.031.441 2.628 1.385 1.41 3.25 1.188 1.437-1.192 2.685-.337 3.188 1.375.039 1.138-1.217 3.089.906 3.375 1.875-.113 2.048 2.303 3.344 1.969 1.21 1.455 2.183-1.405 2.969-.406 1.684 1.719 1.025 4.717 3.156 6.219 1.567 2.032.799 5.201 3 6.75.551 1.847-2.018 1.007-2.813 2.156-2.192 1.297 1.556 2.506-.469 4.313-.151.199-.334.39-.531.563-.391-.101-.928-.168-1.5-.219-1.864 1.996-3.006-.544-3.688 1.344-.777 1.833-3.067-.197-4.719.969-1.009 1.633-3.125 1.756-4.844 1.875-1.431-.068-2.857-.078-4.063.813-1.573.047-2.243-1.875-3.469-1.688-.808-2.142-2.63-.347-4.125-.156-.001 1.577-1.573 1.965-1.938.313-1.961-2.81-1.248-.097-2.656.875-.737.321-1.235 1.079-1.469 1.875l-1-.313-.313.25h-.031c-2.961 1.401-1.228 1.929 1.094 1.531-.951.562.415 2.66 1.281 3.188 1.07 1.404 2.537 1.05 4.188.969.592 1.328 2.765.348 3.406 1.938 1.62 1.079 3.43 1.611 5 2.719 1.413 1.147 2.924.108 4.438.625 2.225.709 2.089 3.862 4.625 3.781 1.317 1.07 2.595.057 3.906.469 1.314 1.46 3.103-.618 1.875-1.938-.413-1.913 3.558-2.22 1.719-3.781-.511-1.545-.522-2.521-2.281-3.688.129-1.47 1.106-2.923 1.094-4.469.67-1.212 1.524-2.342 2.188-3.563.26 1.173 1.236 2.202 2.688 1.938 1.6-.053 3.939-.073 3.875-2.219-.098-3.073 4.877-3.441 3.906-6.688-.842-1.493-.441-3.074 1.188-3.719 1.408-1.373 3.503.876 4.094-1.438 1.058-1.608-.982-1.998-.344-3.625-.66-1.432-.03-3.027-1.938-3.594-1.517-.512-2.62-2.034-4.469-1.656-1.127-1.201.169-2.195.781-3.281-1.291-1.338.947-2.358.875-3.844 1.094-1.979 1.884-3.415 3.063-1.344 1.972 1.175 4.286.995 6.438 1.063.868 1.322.618 2.307 1.656 3.438 1.115 1.314 2.839 1.75 4.469 1.906.776-1.382.121-2.993 1.094-4.219.397-2.299-2.073-4.319-3.969-5.406-1.398-1.121-2.156-2.481-4.188-2.719-1.972-.518-3.726-1.205-5.188-2.656-3.222-1.585-6.872-1.917-10.063-3.594-1.043-.396-4.323-1.244-2.031-2.469 1.295-.897 2.501-2.54 1.063-3.906-1.753-1.506-4.173.055-6.219-.094-1.673.277-3.755.478-5.063-.719-1.196-.157-2.478-.491-2.563-1.906-2.146-.152-3.16-2.376-4.875-3.344-3.096-2.717-2.913-7.083-4.938-10.406-.603-1.183-1.272-3.741-2.906-3.281-2.677-1.13-4.494-3.718-7.281-4.5-2.197-1.545-3.29-4.112-3.188-6.719-1.159-1.537 1.484-1.188 1.75-2.781.829-1.995.162-2.312-1.375-3.156-.151-1.214-1.856-3.216.406-3.5 1.979-.635 3.652-2.181 5.531-2.656 1.105-1.07 3.289.274 4.156-1.531.344.453.109.894-.281 1.281-.104.076-.208.156-.281.25-.722.584-1.628.995-1.031.969.22 1.595 1.158 3.306 1.031 4.531-.321 1.176 2.99 2.168 1.438 3.281.297.431 2.451 1.379 3.406 2.438.668.479-.631-2.388.813-3.156.456-.12.714-.355.844-.625.044.254.09.536.125.906.265.371.411.849.563 1.313-.158.07-.257.183-.313.344l-.125.094c-2.045.923.132 2.597 1.125 2.625.085.19.235.345.406.469-1.505-.452-6.921-2.761-3.25-.75l4.844 2.938c.28.116.788.432 1.375.813-2.163.034-5.346-.06-2.656.5l4 1.031c.775.9 1.654 1.711 2.406 2.625.392.217.73.399 1 .531.218.293.499.502.844.656.211.223 1.42.755 2.188 1.125 1.067 1.309 1.87 2.218.875.438.77.311 1.577.498 2.406.625.075.33.126.675.156 1.031.509.229 1.132.237 1.813.156.037.123.183.194.375.219.404.616 1.362 1.317 2.25 1.531l.313-.031.125.125c-1.617.336-3.684.505-2.719.875 2.592.935 5.241 1.441 7.969 1.188-.021.084-.017.189 0 .281-1.467.21-2.903-.226-4.25.844.569.581-.895 2.526 2.469 1.5.346.039.694.042 1.031.031-1.238.404-1.041 2.557.844 2.188 1.265-.164 1.568-2.203.094-2.188l-.281-.031c1.28-.136 2.54-.479 3.875-.563l.125.031-.094.094c-3.006 1.841.412 1.566 2.125 1.875 1.579.207 3.162.347 4.75.469l.25.156c1.259.314 2.017 1.791 3.469 2.031l.281.281c1.026 1.406 1.938 2.944 2.906 4.406-.131-.607-.493-1.563-.719-2.344 1.382 1.338 2.68 2.57 2.125 1.875-.556-1.024-1.24-1.997-1.906-2.969.2.147.485.426.875.875 1.069-.666 2.542 1.63 3.219 2.5.377.814 1.177 1.119 2.031 1.406l.094.438c.175-.105.346-.199.5-.25.535.198 1.047.452 1.438.875-.08-.215-.153-.411-.219-.625.667.684.29 2.225-1.5 1.5 1.365 1.106 1.586 2.365.25 2.688 1.04 1.544 1.66 2.373 1.344 4.063.093 1.602-.406 2.933-.344 4.563-1.6 1.374.02 1.305-.906 3.906 1.675-3.546.118-.033 1.625 1.344 1.047 2.389 4.615 1.905 5.781 3.938.174.078.298.224.406.406-.115-.013-.233.008-.344.125-1.102.494-3.214.838-2.313 2.344.605 1.261 2.176 1.717 2.719 3.188.644.702 1.55.946 2.5.906.015.239.058.567.156 1-.861 1.896 5.906 1.499 2.469.219-.533-.25-1.198-.896-1.719-1.344l.5-.125c.428.543.957 1.02 1.594 1.125.961.387 2.682 1.655 3.188 2.813.143.134.247.294.313.469-.076.073-.151.146-.219.281-1.686 1.423-1.014 3.737-.719 5.625-.502 1.105-2.158-1.089-1.5 1.563-.572 1.217-.521 2.735 1 3.219 1.105-.288 2.607.478 4.125.25 1.217-.33.878-1.473.188-2.438.183-.824.369-1.642.531-2.469.155.151.287.287.375.438.438.397.849.77 1.219 1.094v-266.656c-.112.042-.214.092-.313.156-1.624 1.191-3.044-.633-4.531-.281-1.292.586-3.452-.618-4.5.188-1.669.64-4.212-1.375-3.25 1.031.829 1.731-1.816.735-2.375 1.344-.897-.29-1.309.077-1.656.531-.096-.139-.214-.259-.406-.406-1.512-1.274-1.796-2.476-1.469.438-.066.39-.001.699.125.906l-.094-.031c-1.19 1.802-2.718.936-2.625 2.906-1.068.513-3.673 1.257-2.594 2.875-.036.245-.046.485-.063.719-1.058-.197-1.895.477-1.938 1.25-.349-.263-.754-.393-1.281-.313.19-.988-.902-.676-1.531-.719-1.182.608-1.147 2.706-3.219 2.188-1.866 1.779.906 2.265 2.219 2.313-.043.639.279 1.258.75 1.625l-.688.156c-.222 1.887-4.373 1.277-2.906 3.125.946.704-1.423 1.872 1.188 3.063 2.348.31-.983 3.387 1.5 3.875 1.545.352 2.165-2.142 2.094-3.5.123-1.733 2.301-.034 3.094-1.719.733-1.114 1.384-3.268 3.281-2.094.997-.248.779-1.208-.344-1.969.074-.106.124-.21.156-.344.418.339.841.681 1 1.344.525 1.902 1.944.6 3.188 1.594l-.031.031c-2.584.265.001 3.576 1.031 1.625-.127-.395.002-.997-.031-1.406.783-.366 1.337-1.746 1.406.375.144.94-.593 2.511-.406 3.406.152 1.616 1.368 3.067 1.594 4.75 1.119 1.703.363 3.663-1.219 4.719-.742 1.986-3.198 1.011-4.125-.031-.664-1.418-1.133-3.054-2.875-3.313-1.35-1.006-2.922-1.641-3.094-3.5-1.297-.707-3.215 1.885-4.625 2.625-2.527.13-2.494 3.154-3.375 4.906.115 1.734.88 3.551-.75 4.844-1.491 1.35.041 3.548-1.281 2.063.947 2.374.584 4.802 1.344 7.156.055.519.375.983.75 1.313-.055 1.103.317 2.696.656 3.813l.219.375c.043.206.079.378.063.438.514 1.62.249 3.263-.313 4.813l-.156.313c-.756 1.95-1.92 4.166-4.313 4.031-1.713-.258-2.448 1.177-1.719 2.656.373 1.474-.599 2.819-1.406 4.125l-.219.031c-1.527 1.494-4.629 2.339-6.219.906-.016-1.048-1.095-2.651.25-1.031 2.794 2.109 2.391.204.813-1.75-1.157-.939-2.86-1.484-4.25-1.938-3.299.443-6.573 1.517-9.406 3.25-1.534 1.88-1.91.525-3.188 1.656-1.738 1.275-2.079 4.247-4.781 4.156-3.4 1.752-7.236 2.641-10.438 4.75-.328-.146-.605-.206-.844-.219-.777-1.054-2.2-1.694-3.25-2.625h.063c1.319-1.698-1.112-2.162-.75-3.25.08-1.891-1.529-2.155-1.938-2.875-.393.012-.891-.399-1.219-.031-.746.4-1.185.707-1.438 1-.946.158-1.165 1.043-1.156 2.031-1.216-.056-2.665.243-3.656-.719-.645 2.111-2.174 4.229-4.375 4.563.449-.729.865-1.479 1.25-2.25l-2.688 2.344c-.258.118-.454.332-.625.563l-.313.25c-.163.227-.289.451-.438.688l-.219.031c-.507.135-.834.333-1.031.563-.33-1.222-3.256.394-2.469-.063 1.462-.774 1.913-2.099 1.781-3.625.126-.028.255-.08.375-.156 1.523.645 1.722.166 1.406-.594 1.988-.647 4.265-1.368 1.188-.906-.686.108-1.191.131-1.625.125-.324-.478-.749-.953-1.094-1.25-.424-.015-.9-.693-1.281-.219-1.086.226-1.226 1.023-.906 1.75l-.438.188c-1.211 1.3-2.381-.391-3.75-.813-1.888.172-1.579-1.454-1.938-2.656-.088-.607-.275-.937-.531-1.156l.281-.125c.393-.078.595-.291.688-.563.587.854 1.419 1.502 2.375 1.063.955 1.647 2.317 1.857 2.875-.406.047.439.167.868.406 1.25 1.708.175 3.044 2.18 4.844 1.25.56.236 1.069.233 1.469.094l.156.406c2.183 2.352 1.561-.367 2-1.875.507-.595.695-1.085.75-1.531.323-.084.639-.295.906-.719 2.086.704 3.205-2.18.813-2.5-.307-.005-.911-.137-1.5-.219.034-.714.329-1.112 1.719-1.563.937-1.063-.267-2.913-1.531-3.031.21-.353.542-.604.906-.813.361.628 1.034.943 1.688.219.254 1.075 1.169 2.978 2.625 2.375 1.625.642 3.189.302 4.563-.719 1.542-.712 3.339 1.239 4.469-.469 1.572-1.323.944-2.891-.063-4.25-.726-1.09.794-3.099 1.875-2.906 1.768.473 1.243-1.57 2.094-2.031 2.03.411 1.662.409 3.75-.281.108-.026.23-.026.344 0 .318.811 1.794 1.596 2.063.563.32-.048.663-.186 1.063-.469 1.284-1.577.895-3.681 1.688-5.406-.012.632.052 1.266.25 1.906-.65 2.171 1.598 3.091 2.344 1 .585-2.672.811-5.47 1.656-8 .354-1.753.891-3.664 1.125-5.406.613-.536.424-.887 0-1.063-.062-.111-.164-.27-.344-.531-.534-1.161-4.404-4.665-2.875-4.375.917-.225-.061-2.473.031-3.219-.083-.272-.122-.511-.125-.719.308-.043.561-.504.625-1.031.268.083.459.098.5-.031-.166-.115-.283-.27-.375-.438.17-.221.191-.399-.219-.688-.06-.42-.065-.868-.063-1.25.359-.754 1.216-1.02-.125-2.188 1.385-.179 1.355-1.762 3.25-2.063.22-.989 1.49-2.9 2.063.188.953 2.736.402-1.4 1.094-2.844l.125.031c.068.929.842 1.59 1.813.125.286-.183.473-.586.531-1l.219-.094c.213-.219.348-.615.375-1.063l.094-.094c.607.242 1.24.721 1.906 1.313.192-.315-.685-1.041-1.438-1.813l.313-.438c.298-.163.591-.594.75-1 .166-.15.235-.319.125-.5.179-.339.191-.787-.188-1.25.811-.413 1.515-1.491.156-2 .184-.374.381-.714.625-1.031.236.03.319-.085.281-.281.519-.379.833-.654.938-.781.858.381 1.101.91-.406-1.5l-.156-.25.219-.563c1.199-2.133.377-1.321-.656-.156-.778-1.114-1.703-2.057-2.406-3.188.125-.262.181-.558.094-.875-.505-.203-1.06-.706-1.5-1.063-.116-.261-.266-.505-.406-.75h-86.313zm-68.719 189.719c.615-2.62 1.222-5.258 1.938-7.844-1.276 1.834-2.031 4.065-2.031 6.469 0 .467.039.923.094 1.375zm160.375-189.719l-.125.25c-1.409 1.087.99 3.706 1.563 2.781.704.472 1.651.504 2.156 1.594.731 1.238.622-.408.781-1.719.15.067.328.099.5.094l.031.156c.028.14.124.252.281.313.125.062.303.083.469.094.229.914.421 1.589.5 1.406-.033-.439-.003-.946.063-1.469.16-.044.326-.1.469-.188.672.312 1.581.202 1.594-.875-.224-.216-.38-.609-.563-.906.106-.126.137-.286.156-.406.324-.144.626-.387.719-.719.147-.117.269-.256.375-.406h-2.313l-.031.25-.031.063-.031-.313h-6.563zm10.719 0c-.046.367.055.597.219.719-1.309.89-2.192 1.179.969.781.674.239 1.37.066 1.875-.281.105.045.218.044.344.031.226.246.416.486.5.688.236.489.22-.045.031-.875l.156-.125c.113-.176.258-.364.406-.531l.25.156c.128.495.361.566.344.156.484.144.899.013.844-.656v-.063h-5.938zm6.375 0l.125.219c-.161.374-.102.485.094.406.168.573.792 1.119 1.375 1.281l.125.406c.502-.384 1.935-.108 2.469-.688.19.162.416.268.594.25-1.389 1.596-.731 2.992 1.469 1.313 1.272-.817 1.769-2.252 3.25-2.438-.236 1.498 1.944.309 2.219-.75h-11.719zm1.875 2.375c-.149-.005-.329.028-.5.094 1.897 1.414 1.54-.057.5-.094zm-9.719.281l.188.469c-.138-.019-.282.312-.188 1.313.286-.325.38-.681.375-.938.818 1.627.937-.706-.375-.844zm-142.406 3.906c-.67.033-1.211.252-.719.844-.368 3.991.739 2.253 2.063-.281.59-.321-.483-.605-1.344-.563zm-9.063.875c-.176.026-.301.126-.313.313-.555.7-.668 1.191-.594 1.625h-.188c-.232.079-.41.185-.531.313-.284-.07-.552-.036-.813.094-.948.293-1.387 1.584-1.313 2.594-.905.379-.765 1.43-.344 2.25-.154.102-.185.218-.031.313-.497.215-.996 1.423-2.344.781-1.352.046-2.48-.245-4-.094-1.5.3-2.744-3.427-3-1.5-1.85-1.039-2.271 1.315-3.156 2.531l-2.063 2.25c-.297.838-1.204 1.607-.781 2.813-.974-.9-3.163.195-3.25 1.688.193 1.086-.333 1.753-.781 2.531-.138-.063-.314-.104-.563-.125-.019-.976-.387-1.929-.938-2.813h-.375l-.156.031c-1.499 1.251-2.658.433-3.875 2.031-1.058.909-.232 3.58.906 3.406.348.557.308 1.088.156 1.531-.188-.192-.492-.144-.938.375-2.712 1.145-1.453 1.48.219 1.719.076.808.776 1.687 1.594 1.656.678-.178 1.036-.913 1.063-1.594.166.555.378 1.105 1.063 1.063l-.125.219c.041 1.661-1.909.983-2.781 1.5-.607.037-1.231-.083-1.813.063-.431.261-1.369.746-2.063 1.188-1.592-.082-3.179.565-1.844 2.156 1.739 1.711 1.288.183 2.438-.75.814.087 1.585-.238 2.188-.781-.107.31-.088.658-.031 1-.827.311-.557.894.094 1.344-2.536-.204-1.205 3.696.25 2.594 1.285-.173 2.194.455 3.063.188l-.063.125-.219.219c-.463.296-.763.548-.969.781-.371.204-.719.437-1.031.688.41-.766.22-1.611-1.188-1.406-1.43.54-2.062 2.124-.875 2.406-1.062.243-2.54.208-2.5 1.719-1.207 2.037.077 3.494 1.563 3.625 1.244-.265 2.744-.978 2.719-2.313.135-.056.272-.133.406-.219-.089.303.117.089.438-.344l.188-.219c-.512.999.175 1.745-.906 3.25-.136 1.41-1.645 2.133-1.125 3.781 1.234.956 4.06.23 3.438-1.563l.219-.219c.152.368.375.687.656.906 1.742 1.436 3.421-.993 2.563-2.5l.031-.25c.502.707.882 1.146 1.125 1.219l.406.688c-.385.839-2.004 1.708-2.25 3-1.095 1.003-2.246 1.782-2.969 3-.504 1.727 1.024 3.127 1.063 4.688 2.064 2.292 1.575-2.527 2.375-1.188.356 1.581 3.3 3.016 3.344.688 1.253 1.15 2.442 1.088 3.625 0 2.446-.716 1.363.52.313 1.781-1.263 1.481-.786 2.653.188 4.188-.013 1.5.746 2.994 1.5 4.063 1.188 1.826 2.025-2.075 1.5.656-1.979-.002-1.307 2.724-1.438 3.656-1.571.947-.223 3.185-2.313 3-1.731.63-2.827-.005-4.406-.469-.093.179-.233.305-.406.406-.085-.357-.436-.61-1.219-.656-.119-1.067-.972-1.682-2.063-1.719-.96-.115-1.435.164-1.688.656-.956-.878-2.013-1.382-1.313-.094l.375 1.313c-.134.563.258 1.079.75 1.406.17.643.507 1.192.969 1.531-.474.567-.98 1.099-1.969 1.156-1.953.747-2.993 4.59-.188 2.75 1.14.974 3.459-2.086 2.969.063.989 1.182-.996 2.007-.063 3.25-.217 2.006-2.062 2.67-3.656 3.438-1.545-1.042-2.784 1.68-3.969.438-1.415.841-3.572 1.017-3.5 3.125 2.15-.28-.685 1.844-.406 1.781 2.009.467 1.995 2.439 4.188 1.688 1.257.733 1.7-.983 2.688-.625 1.46.54-.124 3.152 2.375 2.875 1.503-.151 2.421-.599 2.563 1.281 1.252.856 2.578 2.301 4.469 1.781 1.367.293-.278 1.501-1.594.875-2.055-1.318-4.815-1.807-7.156-1.125-2.077-.222.345 2.907-2.844 1.531-.975.24-.402 2.642-1.531 3.188-1.148 1.271-2.318 1.49-3.813 2.125-.247 1.376-1.803 2.084-2.938 2.656-1.322-.123-4.084.388-3.688 2.438.322 2.076 2.358.262 3.25.781.278 1.832 1.313 3.131 2.438 1.594.908-1.395 1.973-2.358 3.406-2.719.593-.64 2.44-.302 3.375-.281 1.684 2.809 1.148 2.189 2.5 1.25.32 1.601 3.078 2.082 3.25.188 1.263-.211 2.149-1.879 1.75-2.938 1.283-.736 2.791-.895 4.438-.969 3.328 1.753 3.308 6.019 4.875 9.031-.34-2.374-.651-4.753-1-7.125 1.414.62 3.798 1.516 4.281-.469.471.023.906.107 1.344.188-.333.514-.202.948.969.875.765 1.327 2.824 1.994 3.594.469.845-.156 1.114-.525 1.063-.938.175.08.383.161.594.281l4.75-.125c1.92-.244 4.045 2.755 5.625.563 1.825.433 3.041-1.523 4.688-.438.89-.064.648-2.552 2.906-2.281 1.857-.099 1.234-2.39 2.063-2.969.461-2.408-2.2-1.904-3.969-1.719l-.156-.313c-.18-.164-.501-.385-.875-.594.543-.354 1.519-.788 1.438-1.594-.076-1.719 2.283-.567 2.75-2.25.983-1.814 3.566-2.271 3.5-4.594 1.51-2.155 2.205-5.332.375-7.5-2.12-2.745-5.734-3.072-8.938-3.531.428.324-1.31 3.089-1.75 1.344.82-1.803 1.599-.808 2.125-2.594.346-1.754-.705-3.633-1.031-5.094 1.336-2.49-3.508-5.178-.656-7.313.259-1.092-2.382-1.796-2.031-3.438-.407-2.344-2.766-3.496-4.656-4.594-.671-1.02-.8-3.006-1.125-4.531-.815-2.446-.059-4.873-.344-7.375-1.044-1.189-1.902-1.696-2.656-3.781-.446-1.686-2.828-1.86-3.563-3.438-3.255-.513.439-.22 1.25-1.656.794-1.029-2.79-1.903-.375-2.656 1.867-.818 2.001-2.978 3.844-3.875.407-1.403 1.649-2.338 1.875-3.813.633-1.809 3.278-2.663 2.594-4.906-.093-1.496-1.611-3.164-3.219-2.406-1.893.013-3.614-1.546-5.5-.844-1.356-1.55-3.258-.746-4.906-.375-1.916.734 2.361-1.442 1.281-2.844-.077-1.678 2.574-1.618 3.375-2.969 1.814-.085 2.828-2.129 2.844-3.438.422-.536.558-.983.531-1.344.477-.068 1.059-.769 1.469-1.656.35-.056.341-.259.188-.5l.219-.063c.835-.207 1.237-1.225 1.031-1.938 1.072.375 2.757-.235 1.406-1.156.056-.207-.028-.404-.188-.594 1.451-.379 2.079-1.127 1.344-2.438.789-.667-1.547.202-1.688.094-.366-.021-.702.16-.969.469-.098-.026-.212-.011-.344 0-.008-.15-.024-.279-.063-.375 1.155-.187-.352-1.185-1.188-1.25h-.188zm141.125.688c.271-.007.525.047.75.125-.225.058-.586.165-1 .313l-.156-.25.094-.156.313-.031zm-85.781.938h.031l-.031.156.125.625c-.04-.133-.118-.302-.188-.469l.063-.313zm72.969 2.719c1.469.672 3.668.433 3.625.688 1.393 1.787-1.611.263-2.188.063-.433.326-2.677-.631-1.438-.75zm-127.406.094l.125.125h-.156l.031-.125zm168.188 1.375c.087.22.185.431.313.656.02.593-.089 1.097-.188 1.5-.487-.09-.979-.087-1.125.375-.311.246-.495.501-.594.75l-.469-.031-1 .219c.498-1.252 3.139-1.293 2.188-2.625l-.313-.594c.371.013.794-.068 1.188-.25zm-191.563.094c-.107 0-.24.02-.375.094-1.362.747-2.883 1.27-4.313 1.875-.965.723-1.996-.45-2.813 1.469-.515 1.729-.719 2.436-.406 3.531-.585.018-.808.387-.781.844l-.313.281c-.252.088-.465.166-.656.25-1.348-.477-3.046 1.318-2 2.438l.281.25c-.3.254-.378.596-.313.938-.629.653-.653 2.049-.906 2.688-.11.298-.145.58-.125.813l-.375.5c-1.687.652-1.568 3.132.656 2.438.802-.066.976-.751.938-1.531.41.205.871.368 1.281.531-.589-1.834 1.327-3.155 1-4.156l-.063-.094.125-.063c1.298-.398 1.334-.939.813-1.406v-.063c.782.128.952-1.052.719-2.063.431.282.916.302 1.313-.188 2.026-.908 2.08-.066 3.531-1.594 1.348-.577.705-2.512 2.344-2.469 1.566-1.275.923-2.052 1.094-3.094.181-.627.096-2.22-.656-2.219zm20.531 2.125l.094.406c-.153-.064-.32-.117-.5-.156.163-.044.289-.137.406-.25zm58.031.469c-.063.306.07.615.281.875l-.156.469c-.423-.261-1.058-.491-1.563-.531v-.094c.379-.312.955-.548 1.438-.719zm-95 1.813c-.18 0-.497.087-1 .25-4.497-.494.053 2.763.844 1.313.093-.904.698-1.562.156-1.563zm216.531 1.281l.125.031c-.209.751-.325-.006-.125-.031zm-35.844 3.656c-.156.091.148.479 1.156 1.5.948 2.879 3.892-1.595 1.094-1.188-.967-.041-1.838-.331-2.156-.313h-.094zm28.125 1.563l-.063.031c-.228.082-.12.761.531 2.375l.031.063c.218 1.811 5.049 1.421 1.719-.313-1.04-1.234-1.876-2.139-2.219-2.156zm-178.688.188c.075.007.052.083-.313.25-.238-.103.187-.262.313-.25zm153.156 3.344c-.083.002-.169.051-.25.125-.506.044-.896.308-1.156.656-.265-.105-.48-.087-.563.188l-.281.281-.125.094c-1.24-.443-2.763 1.441-3.313 2.781-.906 1.594-2.511 3.406-1.031 5.219-1.392 1.753 1.76 2.685.313 4.5-.734 1.059 1.14 2.944 2.75.563 4.417-.158-1.68-1.181 1.375-2.5 2.361-.991-.137-1.379 1.438-2.75 2.135-1.28-.91-1.797-.469-2.938-.767-1.372.959-1.165.938-2.531.832.126.947-.28.75-.844.935-.868 1.981-2.558.406-2.656-.265.05-.534-.194-.781-.188zm-15.75 7.313c.803-.027 2.472 1.617 3.156 2.219-.654-.149-1.594-.009-1.688.344-1.085 1.874-.577 4.62-2.094 6.156-.107-.364-.087-.746.313-1.125 1.671-.833-1.284-2.312-.188-3.563.886-.783 1.378-2.759.125-3.75.069-.208.197-.275.375-.281zm-157.188.75l.094.219-.313.125.219-.344zm118.719 3.875c-1.498.201-2.906 2.643-1.031 2.594 1.775 1.032 2.237-1.742 4.344-1.094-.913-.396-1.743-1.343-2.719-1.438-.104-.036-.206-.054-.313-.063h-.281zm-13.344 5.438c.271.768-.071 1.042-.563 1.219.138-.406.247-.808.188-1.156l.375-.063zm19.625 1.094c-.335.04-1.012.305-2.094.875l-.156.063c-3.205-.616-.826 3.623.625 1.531 1.494-1.51 2.362-2.557 1.625-2.469zm-103.281 1.063c.077-.009.156.021.219.094.49.566-2.884 2.094-.906.313.163-.089.456-.381.688-.406zm-32.969 2.031c-.286-.015-.501.066-.594.281l.031.375.031.219c-1.881-.732-1.795-.474-3.719.063-1.315.485-3.159-.565-3.625 1.094l-.594.313c-.133-.107-.294-.204-.469-.313-1.603-2.646-.966-.874-.969 1.094.03.288.089.531.188.719l-.156.688c-1.111.821-4.043 1.173-2.281 3.063 2.76 1.046-1.931 2.441-.563 2.813-.788.719-1.993-.985-2.906-.281-.916-1.551-3.019-1.093-4.344-2.156-1.387-.138-3.202-.018-3.5 1.781-.54.507-.469.96-.25 1.406h-.313c-2.642.589-1.35 1.457.156 2.375.123.527.353.808.594.938-.217 1.456-1.604 2.201-2.25 2.219-3.62-.317.676 1.603-.781 2.938 1.186.662 1.647 1.69 2.219 2.219-.043.212.011.386.094.531l-.156.031c-3.322.483.16 1.662 1.625 2.625-.495.553-.86 1.127-.688 1.688-1.696 1.63-4.533 2.176-6.813 3.344 2.84.257 4.426.687.625.5 2.02 1.947-1.062.195-2.219 1.531-.576-1.052-2.816 2.238-1.281 2.594 1.789.189 1.902-.019.719.906-.281.031-.573.086-.813.125-2.415 1.126-1.818 1.945-.531 1.844.035.321.066.662-.031 1.031.51.468 2.504.611.531 2.156-1.405 1.394-.462 1.323.375 1.094l-.563.219c2.671-.782 2.005 2.662 4.281 1.594.992.296 1.206.97 3.281.875 1.263-.138 2.557-.436 3.906.094 1.589-1.821 2.356 2.583 2.594-.25.784-1.146 2.188-1.621 3.625-1.438.976-.494 2.65-.805 3.469-1.094 1.363-.466 1.508-2.246 3.469-1.156-.482.899-5.132 3.302-.844 1.563 1.733-.249 3.532-1.806 5.094-1.469 1.526.935 1.2 1.977 3.406 0 .129-1.292.354-2.724 1.875-3.719.204-2.02 1.774-3.419 2.969-5-.524-1.151.118-2.58-.125-3.875.833-1.241.465-1.236.844-2.781.537-1.398-1.323-2.455-.375-4.031.507-.655 1.003-1.159 1.25-1.656.365.162.774.147 1.25-.406 1.274.039.912-2.68 2.156-1.094 1.957-1.045 3.714-3.077 2.813-5.344-.023-1.584-1.252-1.639-.813-3.219-.982-1.046-1.133-2.427-1.469-3.5.374-.951.049-1.538-.531-1.969.246-.776.132-1.712-1-1.656l-.25.063c-1.022.197-1.742.37-2.156.531-.652.088-1.353.016-2-.031-.07-.378-.382-.791-1.094-1.25-.129-.851-1.55-1.798-2.406-1.844zm111.563 5c.098-.004.244.342.344 1.438-.621.334-.559-1.43-.344-1.438zm13.938 1.781c.046.298.118.698.281 1.281.015.511.003 1.356.125 2.063l-.813-.031c.255-.58.24-1.647.375-2.281-.086-.581-.059-.896.031-1.031zm16.156 1.344c.381.603.803 1.172 1.25 1.719.665.742.877 3.084-.406 2.906.239-.515-.023-1.433-.438-2.125.083-.873-.363-1.701-.406-2.5zm-17.75 2.063l.063.031c.404.291.678.333.875.219.69.186 1.151.323 1.313.438l.063.125c-.042.134-.772.175-2.188.125.075-.27.043-.592-.125-.938zm78.031.969c.082-.03.106.074.063.375.184 1.206 1.65 3.245-.594 3-2.112-.137-.263-1.398 0-2.531-.022-.129.351-.777.531-.844zm-77.938.063c.783.227 1.586.42 2.406.594-.028.138.01.323.063.563-.961-1.393-2.39-.432-3.563.031.481-.373.919-.743 1.094-1.188zm4.219 1.031c.716.198 1.411.415 2.031.75.951 1.867-.164 1.356-.375 2.375-.005.163.017.339.063.5l-.313.5-.938-3.406c-.044-.231-.231-.474-.469-.719zm28.156 1.656l-.25 1.125c-.508 1.54-.685 3.835 1.5 4.063 1.585 1.039 3.304-.102 3-1.906-.571-1.754-2.963-2.014-4.25-3.281zm-137.094 2v.156l.063-.031-.063-.125zm0 .156l-.75.094c-1.779.026-2.748 1.85-3.813 2.875-.721 1.265-2.145 2.756.406 2.344 1.208 1.031 2.505-.904 3.438-1.656 1.21-.403.735-3.101.719-3.656zm102.125.375c.348.526.378 1.254.438 1.906-.26-.15-.574-.194-.875-.156.682-.459.631-1.095.438-1.75zm9.125.469c.591.66 1.482 1.174 2.313 1.375.989.716 1.824 1.293 1.969 2.281-.489-.049-.954.02-1.313.219-.543-.374-1.002-1.256-1.813-1.156-.7-.016-1.242.184-1.625.531.281-1.055.39-2.147.469-3.25zm-126.844 2.938l.094.031c.283.214-.058.016-.094-.031zm121.531.125c.837.276 1.669.55 2.469 0-.223.353-.464.698-.719 1.031-.628-.304-1.353-.639-1.75-1.031zm-12.969.188h.031l.188.094-.031.188c-.229-.061-.322-.157-.188-.281zm-134.969 2.781c.857.234 1.903.357 1.625.594-.289.35-.736.758-1.156 1.188-.095-.631-.182-1.302-.469-1.781zm197.344.25l.063.063c-.719.55-.252-.108-.063-.063zm-24.625 5.625v.031h-.125l.125-.031zm6.156 4.906c.101.711-.375.717-.563.531.047-.141.113-.3.188-.438.094-.039.213-.071.375-.094zm-56.313 2.813h.656c0 .439-.272 1.168-.438 1.906-.1-.115-.224-.247-.344-.344.36-.139.266-.34-.75-.594.17-.15.325-.353.438-.563l.031-.219.406-.188zm-2.719.031h.313l-.094.094h-.063l-.156-.094zm-49.375 1.063h.063c.105.015.229.099.344.313-.152.476 3.697 1.738-.75.938-.333.122-.062-1.145.344-1.25zm42.125 1.188c.119.064.267.14.406.188l-.156.063c-2.171.213-2.172 2.781-3.938 3.5-.507.878-1.067.901-1.625.719.576-.662.854-1.454.719-2.344 1.022-.399 2.308-.985 2.844-1.375.597-.214 1.171-.464 1.75-.75zm-49.969.844c6.26 0 11.344 5.053 11.344 11.313 0 6.26-5.084 11.344-11.344 11.344s-11.344-5.084-11.344-11.344 5.084-11.313 11.344-11.313zm-71.688 1.906c.004-.015-.3.089-.813.281.424-.12.807-.261.813-.281zm53.656 13.063c.108-.01.163.029.156.156-1.771.878-.624-.115-.156-.156zm-13.656.781c-.197.011-.438.055-.75.125.906.933 2.128-.202.75-.125zm13.469 22.469c-.187-.013-.455.112-.813.438-2.352.537-2.381 2.922.375 2.469.16-.051.301-.258.438-.531 2.704.993 1.168-.894.063-.156.365-.852.513-2.181-.063-2.219zm.656 3.5c-.182.018-.233.276-.063 1.094-.284 1.823 1.698 1.79 2.906 2.406.677-1.432.411-2.841-1.25-3.219-.623.301-1.29-.311-1.594-.281zm-24.219 5.469c-.108.014-.212.036-.313.094-3.005.381.272 2.927 1.469 1.313.419-.565-.286-1.385-1-1.406h-.156zm6.938 10.813l.156.094c.372-.018-.121-.132-.156-.094zm3.406.281c.246-.02.831.224 1.719 1-1.601-.208-2.128-.967-1.719-1zm4.781 4.594c.007 1.925 4.415 1.092 2.719 1.75-1.392.715-2.906-.507-2.719-1.75zm3.594 9.531c-.254-.012-.47.148-.563.594-2.705 2.176 2.809 1.498 2.969 1.406-.376-.334-1.644-1.966-2.406-2zm7.719 9.969l.125.031.344.031v.281c-.146-.119-.309-.237-.469-.344zm137.406 16.563c.17 0 .345.071.594.25-.072.364-.265.653-.5.906l-.031-.281c-.156-.399-.255-.667-.344-.813.075-.048.186-.063.281-.063zm1.469 3.875c.385.241.763.454 1.188.563-.19.073-.371.141-.563.188-.199-.198-.421-.374-.625-.563v-.188zm.156 2.156l.094.031.188.063c.053.337 1.671 2.489 2.188 3.031.038.163.141.318.25.469-.483-.287-1.164-.472-1.5-.313-.119-.167-.358-.361-.75-.563-.256-.067-.452-.179-.594-.344h.063c1.025-.018.454-1.224.063-2.375zm1.094 3.875c.05.141.114.303.25.5-.022.144-.043.284-.031.406-.384-.267-.771-.51-1.219-.688.401 0 .776-.075 1-.219zm2.156.25c.44.38.968.765 1.406 1.188-.135.167-.195.355-.188.563-.378-.298-.691-.534-.938-.719.025-.243-.044-.543-.281-.906v-.125zm0 1.531c.187.299.372.64.594 1.031-.392-.26-.807-.508-1.219-.75l-.094-.094c.262.01.532-.052.719-.188zm5.906 5.844c.541.177 1.043.385 1.344.656-.299-.068-.599-.12-.906-.156l-.406-.438-.031-.063zm-111.813 2.75c.292-.016.694-.011 1.219.063-1.693.682-2.483.004-1.219-.063zm125.625 2.406c.231.192.424.416.594.719-.363.011-.738.038-1.094.031.282-.193.456-.456.5-.75zm-7.438 2.094c-1.293.122-2.002 3.028-.438 2.531 1.732.595 3.909-2.937 1.313-2.375l-.188-.125-.25.031c-.144-.054-.304-.076-.438-.063zm-58.656 2.156c-.479 0-.714.338-.063 1.313.432 3.384 1.016 4.03 1.781.344.6-.675-.921-1.651-1.719-1.656zm-3.188 1.094c-2.422.821-1.123.036-1.375 2.844 0 .759-2.242.888-3.281 1.75-1.464.598-2.352.583-2.844 2.031-.704 1.142-1.669 2.521-.969 3.531-1.002 1.51 1.754 1.809.656 2.875-1.726 1.835 2.004 1.97-.406 3.406 2.265.07 1.132 2.134 2.438 3.063 1.737.538 1.765 1.336 3.063 1.813.17.13.295.19.438.25l-.031.094c-.8 1.27-2.011 1.517-2.969 2.75-.927 1.118-2.269 1.522-3.5 2.25-.726.016-1.255-.533-1.719-1.031.851-.508 1.46-1.12.969-2.219-.583-.099-1.226-.94-1.531 0-.98.86-1.893 3.355-1.594 3.5l.281-.219c-.03.993-.357 2.161-.625 2.813.272 1.742 1.1 4.817 1.813 1.719 1.048.92-.129 2.547 1.375 2.969.538 2.158-1.641 1.8-.844 3.375-.061 2.088 1.283 4.455-.281 6.406.284.915.06 1.704 0 2.469-.119.023-.248.094-.406.219-2.06-.075-1.026 2.477.125 2.656.387 1.294 1.69 2.732 1.969 1.688.15-.207.258-.434.344-.656.113.306.168.643.125 1.031 1.758 1.639 1.927.193 3.906.313 1.399-.768 2.059-2.159 1.75-3.625 1.384-.466 2.316.613 3.563 1 1.656.589 1.385-1.465 2.063-2.188.73-.77-.215-2.591.531-4.094.365-1.345-.206-3.046.781-4.156-.523-1.398-.287-2.779-.969-4.125 1.159-1.052 2.703-3.122 1.188-4.531-.313-1.369-.593-2.712-1.063-3.875 4.275-.241-.358-.533-.875-2.313-.249-.31-.628-.616-1.031-.875.034-.252.001-.577-.125-1 .201-.776-.534-.249-.875-.281-.437.123-.725.271-.906.438-.09-.197-.322-.4-.594-.531.59-.408.784-1.661 1.031-2.313 1.009-.74 1.028-2.078 1.188-3.344-.728-2.225 2.12-3.428 1.469-5.625-.254-1.819.25-3.898-.938-5.469.433-1.389.684-4.711-1.313-4.781zm-123.688 5.188c6.26 0 11.344 5.053 11.344 11.313 0 6.26-5.084 11.344-11.344 11.344s-11.344-5.084-11.344-11.344 5.084-11.313 11.344-11.313zm137.156 1.531c-.21.019-.385.413-.406 1.469-.583 1.63 3.373 3.575 1.906.531-.475-.699-1.099-2.035-1.5-2zm-188.781 7.563c.047-.01.057.045-.125.25-.165-.032.047-.233.125-.25zm124.75 19.156l-.219.281c-1.191.25-3.802-.738-4.188 1.281-.06 2.207 2.082 1.38 3.438 2.594 1.105 1.363 3.536 1.057 3.156-.938-.335-1.327-1.353-2.192-2.188-3.219zm-8.969.469c-.211.018-.522.148-.969.438-2.278.419-4.567.927-6.281 2.594-1.348.483-3.851 1.727-2.094 3.313.576 2.236 2.703.004 3.188.594-.411 2.037 1.718 1.785 2.656 2.625 1.284 1.348 3.216-.319 4-1.469.344-1.561 2.695-2.364 2-4.156-.716-1.916-3.708.016-2-2.25-.502.195.413-1.765-.5-1.688zm161.938 2.031c.745.356 1.234.861 1.438 1.594-.628-.244-1.244-.393-1.313-1.469l-.125-.125zm-179.438 7.063l-.25.031c-1.974-.1-3.288 1.273-4.031 2.938.055 1.211 1.273 1.495 2.375 1.563l-.063.063c-1.678 1.039-.868 3.354 1 2.625 3.005.824 1.639-1.474.219-2.438l-.219-.438c.742-.768 1.68-1.428 2.625-2.031-.241-.921-.515-2.358-1.656-2.313zm188.219 4.969c.178.143.392.294.594.438v.344l-.344-.344c-.167-.097-.289-.226-.406-.344l.156-.094zm-53.375 1c-.139-.016-.472.28-1.219.875-3.732.895 2.128 3.337 1.25.656.01-.988.147-1.511-.031-1.531zm54.656 2.031l.063.656-.344-.344c.118-.104.207-.21.281-.313zm-68.625.563l6.344 2.906c2.884 1.888 2.962.458.844-1.375-2.391-.531-4.794-1.013-7.188-1.531zm9.906 1.031c-.087.01-.192.04-.313.094-2.007-.082-1.207 1.273-.25 1.875.11.284.377.566.688.813-.144 1.663 3.73 2.899 1.969.063l-.25-.313c-.092-1.016-.254-2.597-1.25-1.719-.095-.419-.177-.853-.594-.813zm58.438 2.094c-.125.013-.264.105-.469.313-2.214.947-.637 3.316.906 4.063.509.138 1.566.143 2.438.094v-2.563c-.569-.49-1.277-.817-2.063-.906-.335-.366-.439-1.039-.813-1zm-86 6.906c-.169.049-.377.38-.531 1.25 1.079-.085.903-1.359.531-1.25zm-22.844 7.656c-.203.013-.448.062-.719.156-1.954.301-3.521 1.38-5.531 1.313-1.439.728-2.416 1.976-3.688 2.938-.833-.059-1.55.126-2.063.5-.966.177-2.246.525-3.125-.188-1.193-.772-3.088 1.955-4.188.75.865-2.708 2.246-4.2-1.125-1.281-1.365.163-2.647-1.435-3.938-1.406-1.67-.371-2.963-.285-2.031 1.688-1.281.744-2.508.173-3.75-.344-1.816.4-1.937-2.379-3.906-1.813-2.006.092-1.795 2.482-3.563 2.594-1.948.65-4.278-.303-5.75 1.531-.635 1.24-4.325.858-2.844-.906-2.137-.108-3.599-2.262-5.875-1.875-2.516-.554-5.133-.067-7.594-.844-2.083.019-3.779 2.365-5.938 1-1.702-.159-1.576.094-3.875-.438-1.568 1.006-3.572 3.244-5.438 1.563-1.819-.134-3.7.777-5.563.281-1.752.141-3.6-.024-5.313-.219-1.718.462-3.884-.081-5.125 1.438-1.707.123-3.136.814-4.719 1.313-1.277.656-3 1.187-3.781 2.563-.338 1.69-2.645 2.72-3.313.813-1.64-1.215-3.005-.463-3.656.656-.55 1.685-2.171-1.444-2.938.188-1.844.23-3.601 1.248-4.563 2.813h121.594c.198-1.505 1.659-2.514 3.219-2.938 1.114-1.5 1.602-3.803 3.438-4.875-.43-1.305-.128-3.84-1.719-3.813-1.687.146-2.087 1.514-3.406 2.344-1.614-.416-2.111 2.325-3.063 1.813 1.635-1.5-2.504-2.761-.563-3.813 1.185-1.188-1.449-2.271-3.031-2.438-1.179.472-1.143-1.154-2.563-1.063zm-154.469 1.531l.094.313c-.213-.078-.423-.176-.594-.219.173-.024.343-.052.5-.094zm176 4.438c-1.608.074.088 3.146 1.344 2.563 2.141-.32.741-2.504-.75-2.469-.242-.064-.427-.101-.594-.094zm23.813 8.406c-.534.021-.851.181-1 .406h2.906c-.365-.204-.998-.309-1.656-.406h-.25z" fill="#fff"/><path d="M107.469 89.5c-6.244 0-11.281 5.037-11.281 11.281 0 6.244 5.037 11.313 11.281 11.313 6.244 0 11.313-5.069 11.313-11.313 0-6.244-5.069-11.281-11.313-11.281zm-7.469 87.406c-6.244 0-11.313 5.069-11.313 11.313 0 6.244 5.069 11.313 11.313 11.313 6.244 0 11.313-5.069 11.313-11.313 0-6.244-5.069-11.313-11.313-11.313zm-38.844 44.906c-6.244 0-11.313 5.069-11.313 11.313 0 6.244 5.069 11.313 11.313 11.313 6.244 0 11.281-5.069 11.281-11.313 0-6.244-5.037-11.313-11.281-11.313z" stroke="#000" stroke-width="3" fill="none"/></svg>